Billionaire Tony Stark must contend with deadly issues involving the government, his own friends, as well as new enemies due to his superhero alter ego Iron Man.
 
http://www.imdb.com/title/tt1228705/

Audio: English

Subtitles (srt) : Dutch.

Covers included.

Multimiljardair en geniale uitvinder Tony Stark (Robert Downey Jr.), wordt zes maanden, nadat hij zijn identiteit als 'Iron Man' heeft onthuld, opnieuw gedwongen zijn krachten te bundelen. Nu de wereld bewust is van het feit dat Tony 'Iron Man' is, wordt hij door zowel de pers als de regering onder druk gezet om zijn uitvinding en technologie met het Amerikaanse leger te delen. Tony weigert informatie te onthullen, omdat hij bang is dat het in de verkeerde handen terecht zal komen. Met Pepper Potts (Gwyneth Paltrow) en James ''Rhodey'' Rhodes (Don Cheadle) aan zijn zijde, smeedt Tony nieuwe plannen en moet hij het opnemen tegen nieuwe, duistere en gevaarlijke machten. Het duurt dan ook niet lang voordat de uiterst gevaarlijke Rus Ivan Vanko a.k.a. 'Whiplash' (Mickey Rourke) van zich laat horen...
 
http://www.moviemeter.nl/film/57684

Geluid:Engels

Ondertitels (srt) : Nederlands.

Hoesjes bijgevoegd.

General
Complete name                    : Iron Man 2-AC3-XviD-DVDRip[Eng]2010 2Lions-Team\Iron Man 2-AC3-XviD-DVDRip[Eng]2010 2Lions-Team.avi
Format                           : AVI
Format/Info                      : Audio Video Interleave
File size                        : 1.45 GiB
Duration                         : 1h 59mn
Overall bit rate                 : 1 735 Kbps
Writing application              : VirtualDubMod 1.5.4.1 (build 2178/release)
Writing library                  : VirtualDubMod build 2178/release
Source                           : Iron.Man.2.German.2010.DL.PAL.DVDR-KiNOWELT

Video
ID                               : 0
Format                           : MPEG-4 Visual
Format profile                   : Simple@L3
Format settings, BVOP            : No
Format settings, QPel            : No
Format settings, GMC             : No warppoints
Format settings, Matrix          : Default (H.263)
Codec ID                         : XVID
Codec ID/Hint                    : XviD
Duration                         : 1h 59mn
Bit rate                         : 1 277 Kbps
Width                            : 720 pixels
Height                           : 304 pixels
Display aspect ratio             : 2.35:1
Frame rate                       : 25.000 fps
Resolution                       : 8 bits
Colorimetry                      : 4:2:0
Scan type                        : Progressive
Bits/(Pixel*Frame)               : 0.233
Stream size                      : 1.07 GiB (74%)
Writing library                  : XviD 1.1.2 (UTC 2006-11-01)

Audio
ID                               : 1
Format                           : AC-3
Format/Info                      : Audio Coding 3
Format_Settings_ModeExtension    : CM (complete main)
Codec ID                         : 2000
Duration                         : 1h 59mn
Bit rate mode                    : Constant
Bit rate                         : 448 Kbps
Channel(s)                       : 6 channels
Channel positions                : Front: L C R, Side: L R, LFE
Sampling rate                    : 48.0 KHz
Stream size                      : 384 MiB (26%)
Alignment                        : Split accross interleaves
Interleave, duration             : 40 ms (1.00 video frame)
Interleave, preload duration     : 500 ms

Thanks to Apres-Ski for the source.Nice job!

Brought to you by 
2Lions Team

meer zien??
                   
Kom dan eens kijken op ons NIEUWE forum 
            
http://www.2lions-site.nl/

2Lions the site to be for all your Dutch MOVIES and more

******************************************

DON T HIT AND RUN Niet gelijk afhaken als de FILM binnen is blijf seeden. 

Don`t quit after you finished the download, but keep seeding

There are fake torrents from uploaders who use our team name.
Those are not ours, or members from our team.
We 2Lions-Team are not responsible for the fake posts on our name

Wij 2Lions-Team zijn niet verantwoordelijk voor die zieke FAKE posten die op onze naam worden gedaan

Please check our site !!!

to the fakers , get a life !!!